<svg width="100" height="100" viewBox="0 0 100 100" xmlns="http://www.w3.org/2000/svg">
  <g fill="currentColor" opacity="0.6">
    <!-- Om symbol simplified -->
    <path d="M35.5 25.2c-4.8 0-8.7 3.9-8.7 8.7s3.9 8.7 8.7 8.7c4.8 0 8.7-3.9 8.7-8.7s-3.9-8.7-8.7-8.7zm0 14.4c-3.1 0-5.7-2.5-5.7-5.7s2.5-5.7 5.7-5.7 5.7 2.5 5.7 5.7-2.6 5.7-5.7 5.7z"/>
    <path d="M75.8 45.2c-2.1-7.1-8.4-12.2-15.9-12.2-6.2 0-11.6 3.4-14.4 8.4-1.4-2.1-3.8-3.5-6.5-3.5-4.3 0-7.8 3.5-7.8 7.8 0 1.8.6 3.4 1.6 4.7-3.2 2.8-5.2 6.9-5.2 11.5 0 8.4 6.8 15.2 15.2 15.2 3.9 0 7.4-1.5 10.1-3.9 2.7 2.4 6.2 3.9 10.1 3.9 8.4 0 15.2-6.8 15.2-15.2 0-3.1-.9-6-2.4-8.7z"/>
    <circle cx="20" cy="75" r="8"/>
    <path d="M85 70c0 8.3-6.7 15-15 15s-15-6.7-15-15 6.7-15 15-15 15 6.7 15 15zm-3 0c0-6.6-5.4-12-12-12s-12 5.4-12 12 5.4 12 12 12 12-5.4 12-12z"/>
  </g>
</svg>
